<svg xmlns="http://www.w3.org/2000/svg" width="880" height="300" viewBox="0 0 880 300" font-size="11" lang="ru" role="img" aria-labelledby="t d"><title id="t">PDF, ваше перо, все экраны</title><desc id="d">Преподаватель подчёркивает η и пишет «размер шага» на пульте с iPad; те же чернила и красная указка появляются в том же месте на проекторе. Страница листается до 08 у всех, а студент, отставший на странице 05, видит, где ведущий, и возвращается к его странице одним нажатием.</desc><style>*{animation:11s cubic-bezier(.23,1,.32,1) infinite both}.m{font-family:ui-monospace,SFMono-Regular,'SF Mono',Menlo,Consolas,'Liberation Mono',monospace}.s{font-family:-apple-system,BlinkMacSystemFont,'Segoe UI','Noto Sans',Helvetica,Arial,sans-serif}.c{font-size:11px;font-weight:600;letter-spacing:.04em}.fl{transform-box:fill-box;transform-origin:0 50%}.fc{transform-box:fill-box;transform-origin:50% 50%}@keyframes iu{0%,4.55%,82%,100%{stroke-dashoffset:1.01}10%,81.82%{stroke-dashoffset:0}}.iu{animation-name:iu}@keyframes ia{0%,11.82%,82%,100%{stroke-dashoffset:1.01}18.18%,81.82%{stroke-dashoffset:0}}.ia{animation-name:ia}@keyframes ih{0%,13.18%,82%,100%{stroke-dashoffset:1.01}19.55%,81.82%{stroke-dashoffset:0}}.ih{animation-name:ih}@keyframes c7{0%,43.64%,100%{opacity:1;transform:none}45.45%,96.18%{opacity:0;transform:translateX(-8px)}96.36%{opacity:0;transform:none}}.c7{animation-name:c7}@keyframes c8{0%,43.64%{opacity:0;transform:translateX(8px)}45.45%{opacity:1;transform:none}96.36%{opacity:1}100%{opacity:0}}.c8{animation-name:c8}@keyframes p7{0%,43.64%,100%{opacity:1}45.45%,96.36%{opacity:0}}.p7{animation-name:p7}@keyframes p8{0%,43.64%,100%{opacity:0}45.45%,96.36%{opacity:1}}.p8{animation-name:p8}@keyframes g7{0%,43.64%,100%{opacity:1}45.09%,96.36%{opacity:0}}.g7{animation-name:g7}@keyframes g8{0%,43.64%,100%{opacity:0}45.09%,96.36%{opacity:1}}.g8{animation-name:g8}@keyframes tb{0%,45.45%,100%{transform:scaleX(1)}47.27%,96.36%{transform:scaleX(1.143)}}.tb{animation-name:tb}@keyframes tm{0%{transform:none;animation-timing-function:steps(10,end)}90.91%,100%{transform:translateY(-140px)}}.tm{animation-name:tm}@keyframes tp{0%,22.27%,40%,100%{opacity:1}23.64%,38.64%{opacity:0}}.tp{animation-name:tp}@keyframes tq{0%,22.27%,40%,100%{opacity:0}23.64%,38.64%{opacity:1}}.tq{animation-name:tq}@keyframes sr{0%,10.45%,100%{opacity:1}11.82%,96.36%{opacity:0}}.sr{animation-name:sr}@keyframes sg{0%,10.45%,100%{opacity:0}11.82%,96.36%{opacity:1}}.sg{animation-name:sg}@keyframes sw{0%,38.73%{opacity:0;transform:none}39.82%{opacity:1;transform:none;animation-timing-function:cubic-bezier(.77,0,.175,1)}43.64%{opacity:1;transform:translateX(-26px)}45.45%,100%{opacity:0;transform:translateX(-26px)}}.sw{animation-name:sw}@keyframes lc{0%,23.64%{opacity:0;transform:translate(0px,0px)}24.73%{opacity:1;transform:translate(0px,0px);animation-timing-function:cubic-bezier(.77,0,.175,1)}30.18%{opacity:1;transform:translate(105.5px,-1.5px)}32.36%{opacity:1;transform:translate(105.5px,-1.5px);animation-timing-function:cubic-bezier(.77,0,.175,1)}36.18%{opacity:1;transform:translate(171.5px,0px)}38%,100%{opacity:0;transform:translate(171.5px,0px)}}.lc{animation-name:lc}@keyframes lp{0%,23.64%{opacity:0;transform:translate(0px,0px)}24.73%{opacity:1;transform:translate(0px,0px);animation-timing-function:cubic-bezier(.77,0,.175,1)}30.18%{opacity:1;transform:translate(162.5px,-2px)}32.36%{opacity:1;transform:translate(162.5px,-2px);animation-timing-function:cubic-bezier(.77,0,.175,1)}36.18%{opacity:1;transform:translate(264px,0px)}38%,100%{opacity:0;transform:translate(264px,0px)}}.lp{animation-name:lp}@keyframes so{0%,56.82%,100%{opacity:1}58.64%,96.36%{opacity:0}}.so{animation-name:so}@keyframes sf{0%,56.82%,100%{opacity:0}58.64%,96.36%{opacity:1}}.sf{animation-name:sf}@keyframes on{0%,100%{opacity:1}}.on{animation-name:on}@keyframes off{0%,100%{opacity:0}}.off{animation-name:off}@keyframes rd{0%,100%{opacity:1;transform:none}45.45%{opacity:1;transform:none;animation-timing-function:cubic-bezier(.77,0,.175,1)}49.27%,96.36%{opacity:1;transform:translateY(20px)}98.18%{opacity:0;transform:translateY(20px)}98.36%{opacity:0;transform:none}}.rd{animation-name:rd}@keyframes tg{0%,45.45%,63.18%,100%{opacity:0}47.27%,61.36%{opacity:1}}.tg{animation-name:tg}@keyframes hi{0%,100%{opacity:1;transform:translateY(-40px)}56.82%{opacity:1;transform:translateY(-40px);animation-timing-function:cubic-bezier(.77,0,.175,1)}60.64%,96.36%{opacity:1;transform:translateY(20px)}98.18%{opacity:0;transform:translateY(20px)}98.36%{opacity:0;transform:translateY(-40px)}}.hi{animation-name:hi}@keyframes cu{0%,49.09%{opacity:0;transform:translate(-36px,72px)}50.18%{opacity:1;transform:translate(-36px,72px);animation-timing-function:cubic-bezier(.77,0,.175,1)}54%,62.73%{opacity:1;transform:none}64.55%,100%{opacity:0;transform:none}}.cu{animation-name:cu}@keyframes tt{0%,54.18%{opacity:0;transform:translateY(4px)}56.55%,59.55%{opacity:1;transform:none}61.36%,100%{opacity:0;transform:none}}.tt{animation-name:tt}@keyframes bp{0%,56.36%,58.27%,100%{transform:scale(1)}57%{transform:scale(.97)}}.bp{animation-name:bp}@media (prefers-reduced-motion:reduce){*{animation:none!important}}</style><defs><path id="u" d="M176 107.5Q188.5 110 201 107" fill="none" stroke="#d4162f" stroke-width="2.5" stroke-linecap="round" stroke-linejoin="round" pathLength="1" stroke-dasharray="1 2"/><path id="a" d="M208 105.5C217.5 109.5 224.5 114.5 231 126M226 123.5L232 127L232 119.5" fill="none" stroke="#0c7a64" stroke-width="2.5" stroke-linecap="round" stroke-linejoin="round" pathLength="1" stroke-dasharray="1 2"/><path id="w" d="M.4 -7.5C.4 -3 .2 1 0 4.5M.4 -5.8C1.6 -7.8 6 -8.2 6 -4.2C6 -.4 2 .4 .4 -1.6M13 -5.4C11.8 -7.6 8 -7.2 7.6 -4.2C7.2 -1.2 10.6 -.2 12.6 -2.4M13.1 -6.4C12.8 -3.8 12.6 -1.6 13.3 -.5M15 -6.4C16.2 -7.8 19.4 -7.4 19.2 -5.5C19.1 -4.2 17.4 -3.8 16.4 -3.9C17.6 -4 19.6 -3.5 19.5 -1.8C19.4 -.1 16.4 .5 15.1 -1M21.2 -.6C21.4 -3.4 21.6 -5.8 21.8 -7.4L24.4 -3.4L27 -7.4C27.2 -5.6 27.4 -3 27.5 -.6M29 -3.6C31.3 -3.4 34.1 -4.4 33.7 -6.2C33.3 -8 29.5 -7.8 28.9 -4.6C28.4 -1.6 30.3 .3 34.3 -1.2M36.1 -7.5C36.1 -3 35.9 1 35.7 4.5M36.1 -5.8C37.3 -7.8 41.7 -8.2 41.7 -4.2C41.7 -.4 37.7 .4 36.1 -1.6M47.2 -7.3C46.9 -4.8 46.9 -2.4 47.3 -1M50.8 -7.3C50.5 -4.8 50.5 -2.4 50.9 -1M54.4 -7.3C54.1 -4.6 54.2 -2 54.7 -.8M47.3 -1C49.7 -.3 52.3 -.4 54.7 -.8M61.8 -5.4C60.6 -7.6 56.8 -7.2 56.4 -4.2C56 -1.2 59.4 -.2 61.4 -2.4M61.9 -6.4C61.6 -3.8 61.4 -1.6 62.1 -.5M63.8 -7.3C65.9 -7.6 68 -7.5 69.4 -7.2M64.1 -7.3C63.8 -4.8 63.8 -2.2 64.4 -.7M76.5 -5.4C75.3 -7.6 71.5 -7.2 71.1 -4.2C70.7 -1.2 74.1 -.2 76.1 -2.4M76.6 -6.4C76.3 -3.8 76.1 -1.6 76.8 -.5" fill="none" stroke="#0c7a64" stroke-width="1.9" stroke-linecap="round" stroke-linejoin="round" pathLength="1" stroke-dasharray="1 2" transform="translate(212 144) scale(1)"/><g id="f7"><text class="s" x="20" y="54" font-size="20" font-weight="800" fill="#101a33">Градиентный спуск</text><rect x="179.5" y="80" width="17.5" height="25" fill="#fff0ad"/><text class="m" x="20 79 109.5 150 180.5 211.5 227 242 257.5 282.5" y="100" font-size="28" fill="#101a33">w=w−η∇L(w)</text><text class="m" x="35.5 45 54 125 273" y="106" font-size="17" fill="#101a33">t+1tt</text></g><g id="pl"><path d="M24 72Q84 184 144 72" fill="none" stroke="#7c8699" stroke-width="1.5"/><path d="M32 86L42.5 101L50.5 111L57.5 117L62.5 121" fill="none" stroke="#0c7a64" stroke-width="1.5" stroke-linejoin="round"/><circle cx="32" cy="86" r="2.5" fill="#0c7a64"/><circle cx="42.5" cy="101" r="2.5" fill="#0c7a64"/><circle cx="50.5" cy="111" r="2.5" fill="#0c7a64"/><circle cx="57.5" cy="117" r="2.5" fill="#0c7a64"/><circle cx="62.5" cy="121" r="2.5" fill="#0c7a64"/><path d="M176 72Q236 184 296 72" fill="none" stroke="#7c8699" stroke-width="1.5"/><path d="M206 114L272 108L193 99L288 86.5" fill="none" stroke="#d4162f" stroke-width="1.5" stroke-linejoin="round"/><circle cx="206" cy="114" r="2.5" fill="#d4162f"/><circle cx="272" cy="108" r="2.5" fill="#d4162f"/><circle cx="193" cy="99" r="2.5" fill="#d4162f"/><circle cx="288" cy="86.5" r="2.5" fill="#d4162f"/></g></defs><rect x=".5" y=".5" width="879" height="299" rx="12" fill="#f3f6fb" stroke="#dce3ef"/><rect x="20.5" y="36.5" width="279" height="195" rx="8" fill="#060c1c" stroke="#0e1b3d"/><path d="M28.5 37H72V231H28.5A7.5 7.5 0 0 1 21 223.5V44.5A7.5 7.5 0 0 1 28.5 37Z" fill="#0a1330"/><path d="M72.5 37V231" stroke="#16244b"/><g class="g7"><text class="m" x="30" y="64" font-size="22" fill="#e6e7e8" textLength="26.4">07</text></g><g class="g8" opacity="0"><text class="m" x="30" y="64" font-size="22" fill="#e6e7e8" textLength="26.4">08</text></g><text class="m" x="31" y="80" fill="#9ba6be" textLength="26.4">/ 24</text><rect x="31" y="86" width="30" height="2" fill="#16244b"/><rect class="tb fl" x="31" y="86" width="9" height="2" fill="#9ba6be"/><text class="m" x="31" y="102" fill="#9ba6be" textLength="19.8">32:</text><clipPath id="lk"><rect x="50.5" y="92" width="14" height="13"/></clipPath><g clip-path="url(#lk)"><text class="m tm" fill="#9ba6be"><tspan x="50.8" y="102">14</tspan><tspan x="50.8" y="116">15</tspan><tspan x="50.8" y="130">16</tspan><tspan x="50.8" y="144">17</tspan><tspan x="50.8" y="158">18</tspan><tspan x="50.8" y="172">19</tspan><tspan x="50.8" y="186">20</tspan><tspan x="50.8" y="200">21</tspan><tspan x="50.8" y="214">22</tspan><tspan x="50.8" y="228">23</tspan><tspan x="50.8" y="242">24</tspan></text></g><g transform="translate(38 113) scale(0.6667)" fill="none" stroke="#9ba6be" color="#9ba6be" stroke-width="2.1" stroke-linecap="round" stroke-linejoin="round"><path d="M4 20h4L19 9a2.1 2.1 0 0 0-3-3L5 17v3Z"/><path d="M14.5 7.5 16.5 9.5"/></g><g transform="translate(38 141) scale(0.6667)" fill="none" stroke="#9ba6be" color="#9ba6be" stroke-width="2.1" stroke-linecap="round" stroke-linejoin="round"><path d="M5 20h6"/><path d="M8.5 16.5 6 14l9-9 3.5 3.5-9 9-1 1z"/><path d="M14 6.5 17.5 10"/></g><g transform="translate(38 172) scale(0.6667)" fill="none" stroke="#9ba6be" color="#9ba6be" stroke-width="2.1" stroke-linecap="round" stroke-linejoin="round"><path d="M8 20H5l-2-2 9-9 6 6-5 5z"/><path d="M12 5l4-2 5 5-3 4"/></g><g transform="translate(38 200) scale(0.6667)" fill="none" stroke="#9ba6be" color="#9ba6be" stroke-width="2.1" stroke-linecap="round" stroke-linejoin="round"><path d="M3.6 17.4c3.2-1.1 5.4-3.6 7.2-6.1"/><circle cx="16.4" cy="7.6" r="2.8" fill="currentColor" stroke="none"/><circle cx="16.4" cy="7.6" r="6.2" opacity=".45"/></g><g class="tp"><rect x="21" y="110" width="51" height="28" fill="#0e1b3d"/><rect x="69" y="110" width="3" height="28" fill="#e6e7e8"/><g transform="translate(38 113) scale(0.6667)" fill="none" stroke="#e6e7e8" color="#e6e7e8" stroke-width="2.1" stroke-linecap="round" stroke-linejoin="round"><path d="M4 20h4L19 9a2.1 2.1 0 0 0-3-3L5 17v3Z"/><path d="M14.5 7.5 16.5 9.5"/></g></g><g class="tq" opacity="0"><rect x="21" y="194" width="51" height="28" fill="#0e1b3d"/><rect x="69" y="194" width="3" height="28" fill="#e6e7e8"/><g transform="translate(38 200) scale(0.6667)" fill="none" stroke="#e6e7e8" color="#e6e7e8" stroke-width="2.1" stroke-linecap="round" stroke-linejoin="round"><path d="M3.6 17.4c3.2-1.1 5.4-3.6 7.2-6.1"/><circle cx="16.4" cy="7.6" r="2.8" fill="currentColor" stroke="none"/><circle cx="16.4" cy="7.6" r="6.2" opacity=".45"/></g></g><g class="sw" opacity="0"><circle cx="60" cy="166" r="8" fill="#ffffff" fill-opacity=".22" stroke="#ffffff" stroke-opacity=".5"/></g><rect x="38" y="131" width="16" height="4.5" fill="#ffffff"/><rect class="sr" x="40" y="132.5" width="12" height="1.5" rx=".75" fill="#d4162f" opacity="0"/><rect class="sg" x="40" y="132.5" width="12" height="1.5" rx=".75" fill="#0c7a64"/><rect x="38" y="159" width="16" height="4.5" fill="#ffffff"/><rect x="40" y="159.5" width="12" height="3.5" rx="1" fill="#ffd60a80"/><rect x="82" y="75.5" width="208" height="117" fill="#ffffff"/><g class="c7"><g transform="translate(82 75.5) scale(0.65)"><rect x="20" y="20.5" width="126.5" height="7" rx="1.5" fill="#0a6e96" opacity="0.3"/><rect x="20" y="162.5" width="59.5" height="7" rx="1.5" fill="#5d6b8a" opacity="0.3"/><rect x="254" y="162.5" width="46" height="7" rx="1.5" fill="#5d6b8a" opacity="0.3"/><use href="#f7"/><use href="#u" class="iu"/><use href="#a" class="ia"/><use href="#w" class="ih"/></g></g><g class="c8" opacity="0"><g transform="translate(82 75.5) scale(0.65)"><rect x="20" y="20.5" width="126.5" height="7" rx="1.5" fill="#0a6e96" opacity="0.3"/><rect x="20" y="162.5" width="59.5" height="7" rx="1.5" fill="#5d6b8a" opacity="0.3"/><rect x="254" y="162.5" width="46" height="7" rx="1.5" fill="#5d6b8a" opacity="0.3"/><text class="s" x="20" y="54" font-size="20" font-weight="800" fill="#101a33">Выбор η</text><use href="#pl"/><rect x="24" y="142.5" width="72.5" height="7" rx="1.5" fill="#5d6b8a" opacity="0.3"/><rect x="176" y="142.5" width="86" height="7" rx="1.5" fill="#5d6b8a" opacity="0.3"/></g></g><rect x="320.5" y="44.5" width="319" height="179" rx="8" fill="#ffffff" stroke="#dce3ef"/><g class="p7"><g transform="translate(320 44)"><text class="m c" x="20" y="28" fill="#0a6e96" textLength="126.3">МЕТОДЫ ОПТИМИЗАЦИИ</text><text class="m" x="20" y="170" fill="#5d6b8a" textLength="59.4">Лекция 04</text><text class="m" x="254" y="170" fill="#5d6b8a" textLength="46.2">07 / 24</text><use href="#f7"/><use href="#u" class="iu"/><use href="#a" class="ia"/><use href="#w" class="ih"/></g></g><g class="p8" opacity="0"><g transform="translate(320 44)"><text class="m c" x="20" y="28" fill="#0a6e96" textLength="126.3">МЕТОДЫ ОПТИМИЗАЦИИ</text><text class="m" x="20" y="170" fill="#5d6b8a" textLength="59.4">Лекция 04</text><text class="m" x="254" y="170" fill="#5d6b8a" textLength="46.2">08 / 24</text><text class="s" x="20" y="54" font-size="20" font-weight="800" fill="#101a33">Выбор η</text><use href="#pl"/><text class="m" x="24" y="150" fill="#5d6b8a" textLength="72.6">слишком мал</text><text class="m" x="176" y="150" fill="#5d6b8a" textLength="85.8">слишком велик</text></g></g><g class="lc" opacity="0"><circle cx="99" cy="123.5" r="5.75" fill="#ff2b1d" opacity=".3"/><circle cx="99" cy="123.5" r="2.5" fill="#ff2b1d"/></g><g class="lp" opacity="0"><circle cx="346" cy="118" r="8.049999999999999" fill="#ff2b1d" opacity=".3"/><circle cx="346" cy="118" r="3.5" fill="#ff2b1d"/></g><rect x="660.5" y="59.5" width="199" height="139" rx="8" fill="#e7eef9" stroke="#dce3ef"/><rect x="654.5" y="199.5" width="211" height="8" rx="3" fill="#e7eef9" stroke="#dce3ef"/><rect x="744" y="200" width="32" height="2" rx="1" fill="#dce3ef"/><rect x="665" y="64" width="190" height="130" fill="#ffffff"/><rect x="665" y="64" width="190" height="22" fill="#f3f6fb"/><path d="M665 86.5H855" stroke="#dce3ef"/><rect x="665" y="87" width="46" height="107" fill="#f3f6fb"/><path d="M711.5 87V194" stroke="#dce3ef"/><g class="so" opacity="0"><text class="m" x="671" y="79" fill="#5d6b8a" textLength="46.2">05 / 24</text><g class="bp fc"><rect x="769.5" y="66.5" width="81" height="17" rx="6" fill="#ffffff" stroke="#dce3ef"/><g transform="translate(775 70) scale(0.4167)" fill="none" stroke="#0a6e96" color="#0a6e96" stroke-width="3.36" stroke-linecap="round" stroke-linejoin="round"><rect x="3" y="4" width="18" height="16" rx="2"/><path d="M3 9h18M8 4v5"/></g><text class="m c" x="789" y="79" fill="#0a6e96" textLength="55.9">К ЛЕКЦИИ</text></g></g><g class="sf"><circle cx="673.5" cy="75" r="3" fill="#c273e6"/><g class="off"><text class="m" x="680" y="79" fill="#5d6b8a" textLength="46.2">07 / 24</text></g><g class="on" opacity="0"><text class="m" x="680" y="79" fill="#5d6b8a" textLength="46.2">08 / 24</text></g><text class="m c" x="760" y="79" fill="#5d6b8a" textLength="91.1">ЧИТАТЬ САМОМУ</text></g><g class="hi"><rect x="666" y="148.5" width="44" height="17" rx="3" fill="#e7eef9"/></g><text class="m" x="671" y="101.5" fill="#7c8699" textLength="13.2">04</text><rect x="689.5" y="92.5" width="18" height="10" fill="#ffffff" stroke="#dce3ef"/><rect x="692" y="95" width="8" height="1.5" fill="#101a33" opacity=".45"/><rect x="692" y="98.5" width="9" height="1.5" fill="#7c8699" opacity=".35"/><text class="m" x="671" y="121.5" fill="#7c8699" textLength="13.2">05</text><rect x="689.5" y="112.5" width="18" height="10" fill="#ffffff" stroke="#dce3ef"/><rect x="692" y="115" width="8" height="1.5" fill="#101a33" opacity=".45"/><rect x="692" y="118.5" width="12" height="1.5" fill="#7c8699" opacity=".35"/><text class="m" x="671" y="141.5" fill="#7c8699" textLength="13.2">06</text><rect x="689.5" y="132.5" width="18" height="10" fill="#ffffff" stroke="#dce3ef"/><rect x="692" y="135" width="8" height="1.5" fill="#101a33" opacity=".45"/><rect x="692" y="138.5" width="9" height="1.5" fill="#7c8699" opacity=".35"/><text class="m" x="671" y="161.5" fill="#7c8699" textLength="13.2">07</text><rect x="689.5" y="152.5" width="18" height="10" fill="#ffffff" stroke="#dce3ef"/><rect x="692" y="155" width="8" height="1.5" fill="#101a33" opacity=".45"/><rect x="692" y="158.5" width="12" height="1.5" fill="#7c8699" opacity=".35"/><text class="m" x="671" y="181.5" fill="#7c8699" textLength="13.2">08</text><rect x="689.5" y="172.5" width="18" height="10" fill="#ffffff" stroke="#dce3ef"/><rect x="692" y="175" width="8" height="1.5" fill="#101a33" opacity=".45"/><rect x="692" y="178.5" width="9" height="1.5" fill="#7c8699" opacity=".35"/><g class="hi"><rect x="689" y="152" width="19" height="11" fill="none" stroke="#0fa0d7" stroke-width="1.5"/></g><rect x="716.5" y="91.5" width="134" height="75" fill="#ffffff" stroke="#dce3ef"/><g class="so" opacity="0"><g transform="translate(716 91)"><rect x="8.5" y="9" width="53.5" height="3" rx="1.5" fill="#0a6e96" opacity="0.3"/><text class="s" x="8.5" y="24" font-size="11" font-weight="700" fill="#101a33">Выпуклые функции</text><g transform="scale(0.421875)"><path d="M30 80Q110 220 190 80" fill="none" stroke="#7c8699" stroke-width="2.5"/><path d="M60 122.5L180 96.5" fill="none" stroke="#0a6e96" stroke-width="2.5"/><circle cx="60" cy="122.5" r="4" fill="#0a6e96"/><circle cx="180" cy="96.5" r="4" fill="#0a6e96"/><rect x="214" y="86" width="84" height="7" rx="1.5" fill="#7c8699" opacity="0.3"/><rect x="214" y="102" width="66" height="7" rx="1.5" fill="#7c8699" opacity="0.3"/><rect x="214" y="118" width="76" height="7" rx="1.5" fill="#7c8699" opacity="0.3"/></g><rect x="8.5" y="69" width="28" height="3" rx="1.5" fill="#5d6b8a" opacity="0.3"/><rect x="107" y="69" width="19.5" height="3" rx="1.5" fill="#5d6b8a" opacity="0.3"/></g></g><g class="off"><g transform="translate(716 91)"><rect x="8.5" y="9" width="53.5" height="3" rx="1.5" fill="#0a6e96" opacity="0.3"/><text class="s" x="8.5" y="24" font-size="11" font-weight="700" fill="#101a33">Градиентный спуск</text><g transform="scale(0.421875)"><rect x="179.5" y="80" width="17.5" height="25" fill="#fff0ad"/><rect x="20" y="86" width="277" height="10" rx="1.5" fill="#101a33" opacity="0.35"/></g><rect x="8.5" y="69" width="28" height="3" rx="1.5" fill="#5d6b8a" opacity="0.3"/><rect x="107" y="69" width="19.5" height="3" rx="1.5" fill="#5d6b8a" opacity="0.3"/></g></g><g class="sf" opacity="0"><g transform="translate(716 91)"><rect x="8.5" y="9" width="53.5" height="3" rx="1.5" fill="#0a6e96" opacity="0.3"/><text class="s" x="8.5" y="24" font-size="11" font-weight="700" fill="#101a33">Выбор η</text><g transform="scale(0.421875)"><use href="#pl"/></g><rect x="8.5" y="69" width="28" height="3" rx="1.5" fill="#5d6b8a" opacity="0.3"/><rect x="107" y="69" width="19.5" height="3" rx="1.5" fill="#5d6b8a" opacity="0.3"/></g></g><g class="so" opacity="0"><circle cx="720" cy="175" r="3" fill="#c273e6"/><text class="s" x="727" y="179" font-size="11" fill="#5d6b8a">самостоятельный</text><text class="s" x="727" y="190" font-size="11" fill="#5d6b8a">просмотр</text></g><g class="rd"><circle cx="689" cy="156" r="3.5" fill="#c273e6" stroke="#f3f6fb" stroke-width="1.5"/><g class="tg" opacity="0"><rect x="713" y="130" width="96" height="18" rx="2" fill="#c273e6"/><text class="m" x="718" y="143" fill="#06203a" textLength="85.8" font-weight="600">Алексей здесь</text></g></g><g class="tt" opacity="0"><rect x="603.5" y="20.5" width="256" height="21" rx="6" fill="#101a33"/><path d="M813 42l6 6 6-6Z" fill="#101a33"/><text class="s" x="612" y="35" font-size="11" fill="#ffffff">Вернуться к странице, на которой ведущий</text></g><g class="cu" opacity="0"><path transform="translate(827 74)" d="M0 0V14L3.6 10.6L6.2 16.2L8.6 15.1L6.1 9.6H11Z" fill="#101a33" stroke="#ffffff" stroke-linejoin="round"/></g><text class="m c" x="20" y="258" fill="#0a6e96" textLength="133.3">ПУЛЬТ ЛЕКЦИИ · IPAD</text><text class="m c" x="320" y="258" fill="#0a6e96" textLength="55.9">ПРОЕКТОР</text><text class="m c" x="660" y="258" fill="#0a6e96" textLength="48.8">СТУДЕНТ</text></svg>
